# xmcd CD database file
#
# Track frame offsets:
#	187
#	101437
#	147187
#	180637
#
# Disc length: 3066 seconds
#
# Revision: 0
# Processed by: cddbd v1.5.2PL0 Copyright (c) Steve Scherf et al.
# Submitted via: CDex 1.70beta2
#
DISCID=2d0bf804
DTITLE=Jean-Pierre Garattoni - Einklang - Essen in entspannter Atmosphäre
DYEAR=1998
DGENRE=New Age
TTITLE0=Teil 1
TTITLE1=Teil 2
TTITLE2=Teil 3
TTITLE3=Teil 4
EXTD=YEAR: 1998
EXTT0=
EXTT1=
EXTT2=
EXTT3=
PLAYORDER=
